<?xml version="1.0" standalone="no"?>
<!DOCTYPE svg PUBLIC "-//W3C//DTD SVG 20010904//EN"
 "http://www.w3.org/TR/2001/REC-SVG-20010904/DTD/svg10.dtd">
<svg version="1.0" xmlns="http://www.w3.org/2000/svg"
 width="1024.000000pt" height="1024.000000pt" viewBox="0 0 1024.000000 1024.000000"
 preserveAspectRatio="xMidYMid meet">

<g transform="translate(0.000000,1024.000000) scale(0.100000,-0.100000)"
fill="#000000" stroke="none">
<path d="M4989 8046 c-3 -4 -57 -11 -120 -16 -110 -10 -203 -22 -244 -33 -11
-3 -47 -11 -80 -17 -60 -11 -118 -25 -165 -40 -14 -4 -59 -18 -100 -30 -41
-12 -83 -26 -92 -31 -10 -5 -25 -9 -33 -9 -8 0 -23 -4 -33 -9 -17 -9 -61 -28
-97 -41 -11 -5 -94 -44 -185 -88 -160 -77 -292 -152 -375 -213 -22 -16 -77
-56 -121 -89 -169 -123 -389 -337 -483 -468 -31 -42 -75 -101 -98 -130 -40
-50 -173 -247 -173 -256 0 -2 -19 -35 -42 -72 -43 -73 -117 -226 -170 -354
-19 -44 -25 -64 -38 -110 -7 -25 -25 -83 -40 -130 -26 -80 -41 -137 -55 -205
-3 -16 -10 -50 -16 -75 -10 -50 -23 -125 -41 -245 -16 -104 -16 -438 -1 -585
12 -111 20 -159 43 -265 6 -27 13 -63 16 -80 3 -16 9 -39 14 -50 5 -11 11 -33
13 -50 14 -82 90 -295 159 -442 21 -46 38 -85 38 -87 0 -13 160 -277 241 -397
233 -347 588 -674 964 -887 110 -62 364 -185 425 -206 25 -8 72 -25 105 -37
33 -12 77 -26 98 -30 57 -14 108 -27 152 -39 79 -23 141 -33 355 -62 119 -16
533 -16 655 0 246 31 272 36 365 61 19 6 51 14 70 19 45 12 189 60 215 72 11
5 38 14 60 21 106 32 331 137 407 190 14 11 29 19 32 19 4 0 39 21 79 48 40
26 80 52 89 57 270 170 575 461 746 714 14 20 43 63 66 96 74 107 146 233 210
368 91 191 95 201 116 264 10 32 29 85 41 118 12 33 25 76 30 95 4 19 13 58
19 85 7 28 16 68 22 90 22 92 30 133 38 195 16 112 33 322 34 405 0 94 -20
348 -33 420 -18 92 -40 188 -60 255 -17 59 -29 104 -36 130 -4 14 -10 34 -15
45 -4 11 -13 40 -20 65 -38 135 -43 148 -162 390 -148 301 -345 579 -563 793
-177 175 -387 342 -528 420 -26 15 -59 34 -73 43 -84 56 -285 153 -419 203
-33 12 -68 27 -77 32 -10 5 -27 9 -37 9 -11 0 -23 5 -26 10 -3 6 -17 10 -30
10 -13 0 -26 4 -29 9 -3 5 -18 11 -33 14 -52 11 -118 26 -163 37 -120 30 -210
44 -390 61 -130 12 -414 22 -421 15z m445 -246 c612 -70 1176 -343 1615 -780
270 -269 492 -615 626 -974 180 -485 228 -951 143 -1381 -53 -272 -95 -410
-191 -633 -144 -331 -307 -571 -562 -827 -333 -334 -666 -543 -1100 -690 -151
-51 -440 -103 -643 -116 -251 -15 -590 11 -812 62 -541 125 -1107 470 -1456
887 -344 411 -554 883 -640 1437 -26 168 -24 466 5 665 34 234 78 391 196 705
37 100 116 254 188 368 56 89 89 135 219 306 61 81 241 264 348 354 189 159
471 327 710 424 253 103 388 137 780 196 56 9 491 6 574 -3z"/>
<path d="M4975 7599 c-325 -21 -642 -107 -950 -259 -432 -212 -708 -455 -989
-868 -130 -191 -280 -530 -350 -792 -56 -211 -70 -326 -71 -585 0 -271 11
-352 86 -630 119 -440 356 -837 700 -1171 183 -176 368 -303 649 -443 220
-109 456 -185 720 -233 103 -18 616 -18 720 0 715 127 1226 440 1661 1017 251
332 417 748 480 1205 20 145 16 444 -9 606 -61 393 -249 832 -500 1167 -151
200 -406 440 -617 579 -164 109 -428 237 -598 293 -184 60 -414 104 -602 115
-165 10 -158 10 -330 -1z m570 -319 l210 -8 105 -45 c58 -25 131 -59 164 -75
l59 -29 -64 -6 c-226 -22 -528 -29 -996 -23 -583 7 -814 14 -827 26 -4 4 1 13
13 19 47 26 300 123 351 136 64 16 641 19 985 5z m-858 -443 c46 -31 78 -92
65 -122 -27 -58 -16 -57 -560 -55 -452 1 -500 -1 -506 -15 -8 -21 -8 -403 0
-441 5 -25 14 -32 66 -48 83 -26 135 -69 176 -145 48 -87 50 -161 7 -240 -78
-141 -249 -204 -385 -139 -100 47 -156 124 -167 232 -10 93 45 216 106 237
l26 9 -2 284 -2 283 100 91 c71 65 109 92 132 95 18 3 230 3 472 0 429 -5 441
-5 472 -26z m1845 11 c36 -25 198 -174 216 -200 15 -20 17 -53 14 -270 -3
-207 -1 -248 11 -248 26 0 86 -72 111 -136 30 -75 32 -122 9 -193 -22 -70 -72
-124 -147 -161 -147 -73 -309 -21 -382 123 -36 70 -40 123 -16 204 39 127 96
183 187 183 l52 0 -2 228 c-2 125 -6 234 -10 244 -3 9 -16 19 -28 23 -50 15
-612 26 -764 14 -148 -11 -153 -10 -187 10 -38 24 -66 61 -66 88 0 10 8 32 19
49 36 59 35 59 519 58 382 -1 443 -3 464 -16z m-1295 -226 c56 -114 138 -272
181 -352 43 -80 127 -235 186 -345 60 -110 160 -299 223 -420 64 -121 137
-258 163 -305 45 -80 101 -186 401 -762 240 -460 331 -639 328 -642 -2 -2 -89
-7 -192 -11 l-188 -7 -6 24 c-13 49 -543 1087 -734 1435 -50 90 -146 269 -213
396 -170 319 -246 457 -254 457 -4 0 -27 -37 -52 -82 -25 -45 -64 -116 -88
-157 -24 -42 -138 -256 -254 -476 -116 -220 -219 -414 -229 -431 -52 -86 -552
-1078 -578 -1147 l-11 -27 -195 0 -195 0 11 28 c20 53 587 1143 844 1621 81
151 159 300 174 330 48 98 171 331 254 481 94 169 148 271 189 355 15 33 37
76 49 95 11 19 32 61 47 93 15 31 29 57 32 57 3 0 51 -94 107 -208z m-793
-196 c24 -10 38 -25 49 -55 20 -49 21 -62 6 -95 -20 -43 -141 -72 -191 -45
-47 25 -75 150 -40 181 32 30 122 37 176 14z m1374 -168 c26 -31 -17 -22 -50
9 -28 27 -34 47 -22 78 5 13 12 6 32 -27 14 -24 32 -51 40 -60z m673 -864 c51
-18 494 -38 737 -32 l142 3 0 -51 c0 -28 -3 -72 -6 -97 l-6 -45 -72 -6 c-39
-3 -246 -2 -461 2 -298 6 -396 11 -415 22 -53 28 -114 82 -152 132 -70 93 -80
140 -38 180 34 32 61 26 146 -34 45 -32 101 -65 125 -74z m-2511 35 c45 -14
63 -41 55 -81 -9 -41 -110 -140 -160 -157 -30 -10 -159 -16 -510 -21 -258 -4
-472 -6 -475 -3 -10 10 -3 149 9 171 l12 22 381 0 c417 0 477 6 553 51 55 31
79 35 135 18z m1194 -61 c9 -12 16 -30 16 -40 0 -22 -59 -78 -82 -78 -22 0
-22 9 -4 52 8 18 19 45 25 61 13 33 25 34 45 5z m-1433 -476 c34 -38 36 -63 8
-108 -41 -66 -25 -64 -446 -64 l-383 0 -11 28 c-13 33 -25 119 -21 149 2 12
11 24 20 26 9 3 194 4 410 4 l394 -2 29 -33z m3628 22 c5 -4 -30 -156 -40
-176 -9 -17 -37 -18 -365 -18 -331 0 -357 1 -392 19 -20 11 -48 35 -60 55
l-24 35 21 29 c28 40 46 53 84 62 29 7 767 1 776 -6z m-1822 -31 c8 -21 51
-102 95 -181 44 -79 78 -145 76 -147 -6 -7 -1168 -10 -1168 -4 0 6 104 211
154 304 l27 50 397 5 c218 3 398 6 400 8 2 1 10 -15 19 -35z m-2057 -422 c45
-44 47 -72 11 -125 -18 -25 -42 -48 -55 -52 -12 -3 -105 -4 -205 -2 l-183 3
-24 30 c-13 17 -29 45 -35 64 -10 28 -8 37 8 60 35 47 54 51 261 51 l194 0 28
-29z m3745 -1 c17 -19 18 -26 7 -66 -26 -97 -32 -99 -244 -110 -143 -8 -200 5
-238 53 -27 35 -25 53 10 101 l30 42 209 0 c197 0 209 -1 226 -20z m-1994
-182 c87 -45 121 -99 122 -195 1 -79 -18 -125 -81 -190 -86 -88 -229 -85 -323
7 -57 54 -74 106 -66 197 7 75 24 109 73 153 82 71 171 80 275 28z m-565 -181
c1 -1 7 -45 13 -97 7 -64 7 -98 0 -105 -6 -6 -70 -10 -157 -10 -128 0 -151 2
-179 20 -18 10 -33 26 -33 35 0 8 16 50 37 93 l38 79 140 -7 c77 -3 140 -7
141 -8z m1293 -243 c68 -20 140 -86 172 -157 18 -40 24 -70 24 -132 0 -89 -12
-119 -72 -186 -106 -118 -275 -126 -395 -20 -20 18 -40 45 -43 61 -7 33 -8 34
-51 21 -33 -9 -130 -17 -319 -27 -65 -3 -122 -7 -125 -9 -4 -2 -231 -5 -506
-6 -532 -1 -614 4 -614 42 0 10 -9 21 -20 24 -17 6 -25 23 -21 48 0 4 -8 7
-18 7 -11 0 -21 8 -23 18 -4 21 31 41 76 44 17 1 -3 4 -44 8 -41 4 146 7 416
8 270 1 551 4 625 6 84 2 108 1 64 -3 -64 -6 -57 -7 70 -12 100 -3 148 -1 169
8 17 8 69 13 121 13 139 0 149 3 163 56 16 60 88 135 165 174 68 34 109 37
186 14z m-2142 -450 c-3 -3 -12 -4 -19 -1 -8 3 -5 6 6 6 11 1 17 -2 13 -5z
m543 -264 c-36 -4 -55 -7 -43 -8 12 -1 29 -9 37 -18 20 -19 21 -84 2 -109 -14
-19 -17 -18 -103 25 -66 34 -89 50 -91 67 -5 36 45 52 163 50 94 0 96 -1 35
-7z m193 -7 c-7 -2 -21 -2 -30 0 -10 3 -4 5 12 5 17 0 24 -2 18 -5z m220 0
c-13 -2 -33 -2 -45 0 -13 2 -3 4 22 4 25 0 35 -2 23 -4z m125 0 c-10 -2 -26
-2 -35 0 -10 3 -2 5 17 5 19 0 27 -2 18 -5z m1132 -38 c17 -9 30 -20 30 -25 0
-13 -67 -56 -108 -71 -37 -13 -54 -3 -67 38 -4 17 1 29 19 48 29 29 81 33 126
10z"/>
<path d="M3604 5987 c-38 -33 -46 -119 -15 -158 46 -59 141 -52 181 13 62 99
-77 221 -166 145z"/>
<path d="M6584 6010 c-73 -29 -100 -141 -46 -193 22 -21 38 -27 71 -27 37 0
49 6 82 39 30 30 39 46 39 73 0 43 -31 85 -76 104 -38 16 -41 16 -70 4z"/>
<path d="M6998 4463 c7 -3 16 -2 19 1 4 3 -2 6 -13 5 -11 0 -14 -3 -6 -6z"/>
<path d="M5830 3672 c-77 -39 -86 -114 -20 -183 32 -33 43 -39 79 -39 36 0 49
6 77 34 28 28 34 42 34 76 0 50 -22 91 -60 114 -36 21 -66 20 -110 -2z"/>
</g>
</svg>
